<?xml version="1.0" encoding="UTF-8"?><svg id="Laag_2" xmlns="http://www.w3.org/2000/svg" viewBox="0 0 443.17 247.8"><defs><style>.cls-1{fill:#fff;}.cls-2{fill:#ca961c;}.cls-3{fill:#2a2a2a;}</style></defs><g id="Laag_1-2"><g><path class="cls-2" d="M288.72,211.47v-39.49c3.03,0,6.59-.25,10.69-.76v4.45c2.01-2.99,4.45-4.48,7.32-4.48,3.07,0,5.52,1.4,7.35,4.2s2.75,6.56,2.75,11.26c0,10.41-3.47,15.62-10.4,15.62-2.85,0-5.2-1.07-7.03-3.22v12.42h-10.69Zm14.12-35.98c-2.36,0-3.54,3.67-3.54,11.02s1.13,11.46,3.4,11.46c2.03,0,3.05-3.82,3.05-11.46s-.97-11.02-2.9-11.02Z"/><path class="cls-2" d="M331.99,160.9v40.58h-10.69v-39.99c2.95,0,6.51-.2,10.69-.59Z"/><path class="cls-2" d="M367.64,200.42c-2.62,1.02-5.17,1.52-7.65,1.52-3.67,0-5.94-1.14-6.8-3.43-1.78,2.38-4.34,3.57-7.68,3.57-6.23,0-9.35-2.89-9.35-8.67,0-4.39,2.85-7.48,8.55-9.26,5.23-1.64,7.85-3.61,7.85-5.92,0-3.03-1.5-4.54-4.51-4.54-3.48,0-5.21,1.46-5.21,4.39,0,.92,.27,2.13,.82,3.63l-5.3-1.03c-.14-.92-.21-1.78-.21-2.58,0-4.69,4.28-7.03,12.83-7.03s12.19,2.19,12.19,6.56v17.93c0,1.84,.6,2.75,1.79,2.75,.37,0,.92-.21,1.64-.62l1.03,2.7Zm-15.15-16.7c-.66,.76-1.44,1.4-2.31,1.9-2.21,1.29-3.31,3.46-3.31,6.5,0,3.91,.76,5.86,2.29,5.86,2.23,0,3.34-1.93,3.34-5.8v-8.47Z"/><path class="cls-2" d="M369.72,201.48v-29.5c3.34,0,6.9-.26,10.69-.79v30.29h-10.69Zm5.42-40.99c3.32,0,4.98,1.29,4.98,3.87s-1.66,3.87-4.98,3.87-4.98-1.29-4.98-3.87,1.66-3.87,4.98-3.87Z"/><path class="cls-2" d="M412.94,160.87v40.61h-10.69v-2.55c-1.8,2.15-4.2,3.22-7.21,3.22-6.64,0-9.96-5.1-9.96-15.29s3.52-15.73,10.55-15.73c2.77,0,4.98,1.22,6.62,3.66v-13.3c3.22,0,6.79-.21,10.69-.62Zm-13.86,14.56c-1.8,0-2.7,1.65-2.7,4.95l-.21,6.27,.12,5.71c0,3.65,1.02,5.48,3.05,5.48s2.96-1.8,2.96-5.39l.15-7.21-.23-4.92c-.31-3.26-1.36-4.89-3.13-4.89Z"/><path class="cls-2" d="M441.82,179.53l-5.19,.91c0-4.41-2.05-6.62-6.15-6.62-2.52,0-3.78,1.04-3.78,3.11,0,1.52,2.17,3.16,6.5,4.92,6.64,2.71,9.96,6.16,9.96,10.34,0,6.66-4.23,9.99-12.69,9.99-8.95,0-13.42-3.33-13.42-9.99l5.51-1.11c-.08,.64-.12,1.25-.12,1.82,0,1.72,.72,3.21,2.15,4.48s3.13,1.9,5.08,1.9c2.58,0,3.87-1.09,3.87-3.28,0-1.46-2.08-3.09-6.24-4.86-6.27-2.7-9.4-6.15-9.4-10.37,0-2.79,1.2-5.08,3.6-6.87s5.49-2.68,9.26-2.68c6.7,0,10.38,2.77,11.04,8.32Z"/></g><path class="cls-3" d="M230.05,80.58l-12.94,2.39c.56-2.58,.84-4.73,.84-6.47,0-11.16-6.77-16.73-20.32-16.73-10.69,0-16.03,3.84-16.03,11.53,0,5.77,5.98,10.71,17.93,14.84,23.06,7.92,34.59,19.64,34.59,35.16,0,9.09-3.23,16.4-9.7,21.9-6.47,5.51-15.07,8.26-25.8,8.26-23.77,0-35.65-9.21-35.65-27.63,0-1.5,.12-3.35,.35-5.55l13.43-2.95c-1.03,4.08-1.55,7.62-1.55,10.62,0,11.91,6.82,17.86,20.46,17.86,10.92,0,16.38-4.29,16.38-12.87,0-6.37-6.54-11.98-19.62-16.8-18.89-6.94-28.34-18.02-28.34-33.26,0-8.62,3.15-15.57,9.46-20.85,6.3-5.27,14.59-7.91,24.86-7.91,21.09,0,31.64,9.49,31.64,28.48Z"/><path class="cls-3" d="M245.45,149.7V78.89c8.02,0,16.57-.63,25.66-1.9v72.7h-25.66Z"/><ellipse class="cls-2" cx="258.45" cy="60.61" rx="11.95" ry="9.28"/><path class="cls-3" d="M311.05,52.31v97.38h-25.66V53.72c7.08,0,15.63-.47,25.66-1.41Z"/><path class="cls-3" d="M363.43,79.03v7.95h-11.39v50.13c0,3.14,1.01,4.71,3.02,4.71,1.45,0,2.32-1.05,2.6-3.16l7.31,.7c-2.02,7.41-8.44,11.11-19.27,11.11-12.89,0-19.34-5.48-19.34-16.45v-47.04h-8.58v-7.95h8.58v-12.52c8.86-2.44,17.41-5.95,25.66-10.55v23.06h11.39Z"/><path class="cls-3" d="M440.63,140.7c-1.73,.98-3.05,1.48-3.94,1.48-2.86,0-4.29-2.2-4.29-6.61v-43.03c0-10.5-9.75-15.75-29.25-15.75-20.53,0-30.8,5.62-30.8,16.88,0,1.92,.16,3.99,.49,6.19l12.73,2.46c-1.31-3.61-1.97-6.51-1.97-8.72,0-7.03,4.17-10.55,12.52-10.55,7.22,0,10.83,3.63,10.83,10.9,0,5.53-6.28,10.27-18.84,14.2-13.69,4.27-20.53,11.67-20.53,22.22,0,13.88,7.48,20.81,22.43,20.81,8.02,0,14.16-2.86,18.42-8.58,2.06,5.48,7.5,8.23,16.31,8.23,5.95,0,12.07-1.22,18.35-3.66l-2.46-6.47Zm-33.89-13.29c0,9.28-2.67,13.92-8.02,13.92-3.66,0-5.48-4.69-5.48-14.06,0-7.31,2.65-12.52,7.95-15.61,2.11-1.22,3.96-2.74,5.55-4.57v20.32Z"/><g><path class="cls-2" d="M107.05,0c-8.32,0-13.84,1.48-14.39,1.64-10.69,2.27-22.84,23.71-27.54,32.75,1.68-12.81,15.19-26.88,15.34-27.04l3.51-3.62-4.62,2c-20.52,8.89-25.82,27.56-26.8,31.94-1.75-.16-3.48-.25-5.15-.25-17.73,0-25.68,8.95-26.01,9.33l-.2,.24-.03,.31c-1.76,16.21,4.13,29.12,9.39,37.11,2.91,4.43,5.92,7.83,8.19,10.13-19.13-9.15-21.91-39.26-21.93-39.59l-.21-2.49-1.57,1.95c-6.13,7.65-8.56,16.39-7.24,25.99,2.2,15.96,14.59,31.61,24.59,41.92,6.9,7.11,13.65,12.74,17.65,15.9C25.97,131.08,4.11,97.04,3.88,96.68l-1.01-1.59-.75,1.73c-3.14,7.26-2.79,15.68,1.05,25,3.03,7.35,8.22,15.3,15.45,23.61,8.63,9.94,18.17,18.07,23.1,22.04-16.23-4.45-27.52-21.27-27.64-21.45l-2.98-4.5,1.17,5.27c5.91,26.7,18.52,46.27,37.47,58.16,14.18,8.89,31.66,13.4,51.94,13.4s37.99-5.12,38.15-5.17l1.27-.39-.72-1.11c-9.65-14.79-12.92-27.68-9.71-38.31,3.64-12.05,14.61-16.9,14.72-16.95l.66-.28-.06-.72c-.55-6.66-5.84-8.92-6.06-9.01l-.17-.07h-.19s-.21,0-.21,0c-8.42,0-14.88,9.61-18.73,17.37,5.32-18.41,16.13-19.47,18.53-19.47,.18,0,.28,0,.3,0l.69,.05,.3-.63c4.79-10.19-2.97-21.83-5.33-25,8.98-6.99,13.14-12.49,12.7-16.81-.29-2.81-2.47-4.42-4.17-5.35,4.36-.94,7.86-3.19,9.96-6.44,2.32-3.6,2.84-8.29,1.44-13.21-1.49-5.25-4.61-7.53-8.55-10.42l-.55-.4c-3.31-2.43-4.53-6.34-3.26-10.45,.5-1.6,3.78-8.08,4.76-8.72,0,0-.02,.01-.05,.03l-.37-.93-.37-.93c-1.81,.71-4.24,1.43-7.04,2.26-8.95,2.64-22.47,6.63-35.16,16.34-4.42,3.38-8.44,7.23-12.05,11.55,9.65-13.91,21.06-22.48,30.77-27.71,18.17-9.78,34.36-10.28,34.52-10.28l.71-.02,.22-.68c5.26-16.64-15.22-23.88-15.43-23.96l-.21-.07-.22,.02c-22.69,2.47-40.93,15.74-48.53,22.13,11.42-19.3,42.41-24.6,42.74-24.65l2.29-.38-1.85-1.41c-5.83-4.43-9.18-5.17-14.25-6.28l-1.24-.28c-4.85-1.08-9.85-1.63-14.88-1.63h0Z"/><path class="cls-1" d="M114.69,2.61c-27.22,11.91-44.66,39.65-50.2,68.12-1.96,9.55-2.84,19.31-2.87,29.05l-2-.02c.2-9.86,1.26-19.72,3.4-29.34,6.07-28.57,24.06-56.27,51.67-67.81h0Z"/><path class="cls-1" d="M150.77,26.4c-17.27-.58-34.47,6.07-47.63,17.09-9.91,8.3-17.46,19.12-23.06,30.69-6.71,14.28-10.66,29.74-12.85,45.33,0,0-1.98-.29-1.98-.29,2.26-14.26,5.84-28.48,11.83-41.66,5.87-13.18,14.35-25.48,25.58-34.65,13.4-10.9,30.77-17.34,48.11-16.51h0Z"/><path class="cls-1" d="M131.03,63.17c-26.1,11.63-47.26,36.82-48.45,66.08-.49,9.53,.7,19.09,3.12,28.31l-1.94,.49c-2.3-9.43-3.35-19.21-2.68-28.91,1.71-29.55,23.38-54.68,49.95-65.98h0Z"/><path class="cls-1" d="M139.54,97.21c-8,1.44-15.4,5.55-21.46,10.88-12.3,10.83-18.3,26.94-20.51,42.83-1.1,8.01-1.33,16.13-1.02,24.21l-2,.06c-.14-8.18,.25-16.4,1.54-24.5,1.35-8.08,3.49-16.07,7.03-23.48,6.81-14.71,20.09-27.27,36.43-30.01h0Z"/><path class="cls-1" d="M136.82,136.7c-17.06,3.95-26.71,20.47-28.46,36.95-.7,5.47-.71,11.02-.36,16.53l-2,.1c-.19-5.62,0-11.27,.87-16.84,2.27-16.65,12.53-33.25,29.94-36.74h0Z"/><path class="cls-1" d="M6.77,109.68c19.49,39.7,67.74,67.78,105.14,80.05,0,0-.29,1.49-.29,1.49-33.79-9.15-82.04-38-104.85-81.53h0Z"/><path class="cls-1" d="M13.24,71.71c3.5,22.33,19.57,41,38.55,52.34,6.37,3.85,13.14,7.03,20.11,9.63l-.35,.94c-7-2.69-13.78-5.98-20.15-9.93-18.93-11.6-34.89-30.52-38.16-52.98h0Z"/><path class="cls-1" d="M33.92,45.72c3.07,12.88,9.56,27.39,22.83,32.21,0,0-.68,1.88-.68,1.88-13.49-5.55-19.65-20.66-22.15-34.09h0Z"/><path class="cls-2" d="M53.19,37.09c.98,40.78,11.56,81.73,31.92,117.15,17.38,30.09,43.44,55.21,74.81,70.32,15.54,7.66,32.17,12.94,49.12,16.4,0,0-1.46,6.85-1.46,6.85-17.38-4-34.41-9.87-50.23-18.17-31.76-16.3-57.86-42.63-74.9-73.89-19.62-36.18-29.29-77.61-29.26-118.66h0Z"/><path class="cls-1" d="M53.19,41.09c1.95,73.82,34.47,152.93,106.32,182.9,15.68,6.74,32.38,10.85,49.28,13.08,0,0-.98,6.93-.98,6.93-11.6-1.81-23.08-4.53-34.23-8.29-27.82-9.36-53.21-26.11-72.08-48.66-33.74-40.36-48.06-94.12-48.32-145.97h0Z"/><path class="cls-1" d="M45.67,179.51c20.37,11.68,52.87,27.59,76.59,24.14,0,0,.31,1.98,.31,1.98-24.24,2.97-56.46-13.73-76.9-26.12h0Z"/></g></g></svg>